<?xml version="1.0" encoding="utf-8"?>
<!-- Uploaded to: SVG Repo, www.svgrepo.com, Generator: SVG Repo Mixer Tools -->
<svg fill="#000000" height="800px" width="800px" version="1.2" baseProfile="tiny" id="Ticket" xmlns="http://www.w3.org/2000/svg" xmlns:xlink="http://www.w3.org/1999/xlink"
	  viewBox="-63 65 128 128" xml:space="preserve">
<path d="M-8.3,100.6H-1v7.3h-7.3V100.6z M6.3,100.6h7.3v7.3H6.3V100.6z M12.9,66v0.2c0,6-4.7,10.7-10.7,10.7S-8.5,72.2-8.5,66.2
	h-23.1V192h23.9v-0.2c0-6,4.7-10.7,10.7-10.7s10.7,4.7,10.7,10.7h23.2V66H12.9z M28.3,150.1h-7.3v7.3h7.3v25.9h-7.9
	c-3.2-6.4-9.6-10.7-17.4-10.7s-14.1,4.3-17.4,10.7h-8.7v-26h7.3V150h-7.3v-42.1h7.3v-7.3h-7.3V74.7h7.9c3.2,6.4,9.6,10.7,17.4,10.7
	s14.1-4.3,17.4-10.7h8.7v25.9h-7.3v7.3h7.3V150.1z M6.3,150.1h7.3v7.3H6.3V150.1z M-8.3,150.1H-1v7.3h-7.3V150.1z"/>
</svg>